HIERARCHY
ROOT Hips
{
  OFFSET 0 0 0
  CHANNELS 6 Xposition Yposition Zposition Zrotation Xrotation Yrotation
  JOINT Spine
  {
    OFFSET 0.00000000 0.00000000 0.00000000
    CHANNELS 3 Zrotation Xrotation Yrotation
    JOINT Spine1
    {
      OFFSET 0.19000000 0.00000000 0.00000000
      CHANNELS 3 Zrotation Xrotation Yrotation
      JOINT Neck
      {
        OFFSET 0.22500000 0.00600000 0.00000000
        CHANNELS 3 Zrotation Xrotation Yrotation
        JOINT Head
        {
          OFFSET 0.14000000 0.00030878 0.00000000
          CHANNELS 3 Zrotation Xrotation Yrotation
          End Site
          {
            OFFSET 0.17000000 0.00000000 0.00000000
          }
        }
      }
      JOINT LeftShoulder
      {
        OFFSET 0.19800000 0.03700000 0.04300000
        CHANNELS 3 Zrotation Xrotation Yrotation
        JOINT LeftArm
        {
          OFFSET 0.08000000 0.00000000 0.00000000
          CHANNELS 3 Zrotation Xrotation Yrotation
          JOINT LeftForeArm
          {
            OFFSET 0.15200000 0.00000000 0.00000000
            CHANNELS 3 Zrotation Xrotation Yrotation
            JOINT LeftHand
            {
              OFFSET 0.17800000 0.00000000 0.00000000
              CHANNELS 3 Zrotation Xrotation Yrotation
              End Site
              {
                OFFSET 0.07200000 0.00000000 0.00000000
              }
            }
          }
        }
      }
      JOINT RightShoulder
      {
        OFFSET 0.19800000 0.03700000 -0.04300000
        CHANNELS 3 Zrotation Xrotation Yrotation
        JOINT RightArm
        {
          OFFSET 0.08000000 0.00000000 0.00151654
          CHANNELS 3 Zrotation Xrotation Yrotation
          JOINT RightForeArm
          {
            OFFSET 0.15200000 0.00000000 0.00000000
            CHANNELS 3 Zrotation Xrotation Yrotation
            JOINT RightHand
            {
              OFFSET 0.17800000 0.00000000 0.00000000
              CHANNELS 3 Zrotation Xrotation Yrotation
              End Site
              {
                OFFSET 0.07200000 0.00000000 0.00000000
              }
            }
          }
        }
      }
    }
  }
  JOINT LeftUpLeg
  {
    OFFSET 0.05984250 -0.07666000 0.04788790
    CHANNELS 3 Zrotation Xrotation Yrotation
    JOINT LeftLeg
    {
      OFFSET 0.16000000 0.00000000 0.00000000
      CHANNELS 3 Zrotation Xrotation Yrotation
      JOINT LeftFoot
      {
        OFFSET 0.18000000 0.00000000 0.00000000
        CHANNELS 3 Zrotation Xrotation Yrotation
        End Site
        {
          OFFSET 0.00000000 -0.10800000 0.00000000
        }
      }
    }
  }
  JOINT RightUpLeg
  {
    OFFSET 0.05984250 -0.07665980 -0.04788790
    CHANNELS 3 Zrotation Xrotation Yrotation
    JOINT RightLeg
    {
      OFFSET 0.16000000 0.00000000 0.00000000
      CHANNELS 3 Zrotation Xrotation Yrotation
      JOINT RightFoot
      {
        OFFSET 0.18000000 0.00000000 0.00000000
        CHANNELS 3 Zrotation Xrotation Yrotation
        End Site
        {
          OFFSET 0.00000000 -0.10800000 0.00000000
        }
      }
    }
  }
  JOINT Tail
  {
    OFFSET 0.06836960 -0.00722574 0.00000000
    CHANNELS 3 Zrotation Xrotation Yrotation
    JOINT Tail1
    {
      OFFSET 0.12000000 0.00000000 0.00000000
      CHANNELS 3 Zrotation Xrotation Yrotation
      End Site
      {
        OFFSET 0.12000000 0.00000000 0.00000000
      }
    }
  }
}
MOTION
Frames:	12
Frame Time:	0.0166667
-1.1538625 0.4744320 -0.2009116 -8.34373 -1.71547 122.796 177.872 1.82404 -6.77412 10.2915 1.3117 11.0965 3.93437 2.33825 -3.92691 -120.072 69.9712 134.029 -112.995 -42.0478 -134.853 126.55 -8.27131 -122.955 -69.5515 6.35385 5.38018 -10.5954 0.973413 -9.28868 78.0385 -23.2032 36.0276 26.5536 -47.2595 -47.6811 -57.8489 -19.4594 -4.70191 -16.305 0.975 3.37313 -128.868 0.759306 -24.3438 66.383 24.709 16.1819 50.4443 -6.38138 -9.7566 -121.511 -1.83487 -5.13412 90.011 -7.3612 -2.91849 55.3828 0.611568 -1.70444 -18.2427 -76.4843 39.4241 10.0954 55.218 -8.04709 
-1.1454341 0.4745700 -0.1925913 -8.55000 -1.87035 123.575 176.906 2.18373 -4.60547 12.0248 1.81681 9.02758 2.50096 1.63996 -2.12616 -118.706 70.399 132.9 -114.529 -43.5627 -135.842 126.739 -10.8132 -122.422 -68.9627 9.24484 4.35236 -13.2802 1.19872 -9.91631 78.1952 -23.5311 37.8782 25.8119 -46.5445 -50.1346 -55.7365 -19.6376 -4.13566 -16.4475 1.13986 2.85979 -127.853 1.01915 -23.2904 67.7099 24.2759 14.7489 50.0954 -6.26176 -9.69619 -125.045 -0.362467 -4.87683 92.6313 -7.33045 -3.3441 52.3669 0.471986 -1.65991 -22.9567 -76.5129 34.246 9.43917 55.6005 -7.46632 
-1.1373514 0.4744580 -0.1839517 -8.66361 -2.08657 124.196 176.633 2.27428 -3.43349 12.3732 1.87712 8.68068 2.33143 1.40728 -1.82305 -118.144 70.6216 132.656 -114.365 -43.2615 -135.965 127.107 -13.339 -122.697 -68.2692 10.8832 3.23808 -15.0226 1.75804 -11.5945 78.1299 -23.6818 38.0928 26.6589 -45.9877 -50.8994 -53.8595 -19.7135 -3.61671 -15.6138 1.74844 0.736844 -126.694 0.99077 -23.1534 68.6124 24.0196 14.13 50.4769 -6.23221 -9.67326 -128.61 1.03742 -4.84686 94.4632 -7.00444 -3.61416 50.0305 0.364042 -1.63717 -27.1071 -76.3737 29.4229 8.65702 55.7338 -6.56443 
-1.1294572 0.4739740 -0.1754957 -8.47599 -2.39071 124.799 176.967 2.2192 -2.52818 11.9404 1.72541 8.78739 2.78773 1.39718 -1.8668 -118.249 70.6849 132.513 -113.799 -42.2055 -136.419 127.074 -15.5401 -123.549 -67.9819 12.6425 2.42908 -16.2606 1.88695 -11.9295 77.8878 -23.9944 38.0504 29.5246 -45.3307 -50.9859 -53.2038 -18.5547 -2.88212 -12.6587 2.62347 -3.30342 -124.939 0.858066 -22.5979 68.9739 24.8128 13.333 50.2388 -6.27416 -9.75391 -131.919 2.45344 -4.31559 95.382 -7.18404 -4.0303 47.5912 0.279847 -1.56581 -30.748 -75.9939 24.7799 7.95822 55.8447 -5.63204 
-1.1217890 0.4729350 -0.1667831 -8.02842 -2.76030 125.374 177.705 2.00865 -1.78381 11.0642 1.37393 9.06819 3.60694 1.4518 -1.92189 -118.454 71.0093 132.722 -112.84 -40.787 -136.592 127.077 -17.8624 -124.383 -67.7078 13.8283 1.75792 -17.1963 2.12495 -12.5997 77.5738 -24.2748 37.5926 34.2615 -43.7389 -49.7643 -54.4627 -15.8734 -2.5833 -6.64043 3.50796 -10.3606 -123.162 0.739025 -22.0263 69.9372 25.1929 12.453 49.8234 -6.29566 -9.84983 -134.802 3.82073 -3.60579 95.0919 -7.24872 -4.57663 45.86 0.171226 -1.54104 -33.7201 -75.4829 20.5888 7.36925 56.0274 -4.75839 
-1.1146764 0.4723860 -0.1580776 -7.35820 -3.29304 125.811 178.675 1.89367 -0.840072 10.5575 1.20032 8.54449 3.76131 1.62544 -1.50845 -119.143 70.8222 132.672 -112.243 -39.8214 -136.843 126.278 -19.4971 -124.204 -67.8023 14.8962 1.2435 -18.1448 2.25888 -12.8441 77.0197 -25.2944 38.4767 41.2044 -41.2924 -48.6792 -58.8726 -11.137 -2.59808 3.0946 2.99261 -19.6971 -120.96 0.388703 -21.6377 70.5468 25.4041 11.8408 49.7072 -6.32961 -9.93225 -137.073 5.25148 -2.37172 93.5425 -7.47093 -5.3176 45.0329 0.173767 -1.46497 -35.7427 -74.9614 17.0741 6.80874 56.2756 -3.91202 
-1.1074362 0.4712730 -0.1493185 -6.89299 -3.77906 126.051 179.655 1.83711 -0.107505 9.82223 1.06612 8.15476 4.13569 1.63693 -1.08908 -119.421 70.785 132.584 -112.315 -39.437 -137.693 124.398 -21.3634 -124.91 -68.3214 14.9973 1.20152 -18.7619 2.56193 -13.7291 76.8285 -25.7268 39.0065 47.813 -40.0359 -46.5359 -66.64 -2.41036 -2.42789 17.2036 -0.800064 -24.7504 -118.838 0.134139 -21.1723 71.2555 25.3221 10.9659 49.4256 -6.23952 -9.87716 -139.15 6.57837 -1.28344 90.8855 -7.66378 -6.21867 44.7854 0.263946 -1.3508 -37.9221 -74.7641 13.584 6.36703 56.7943 -3.23275 
-1.1004419 0.4704650 -0.1408693 -6.41490 -4.18653 126.196 -179.311 1.79654 0.598982 8.95347 0.935013 7.75417 4.65668 2.01112 -0.935788 -120.896 70.7703 132.622 -112.084 -38.671 -138.511 123.264 -22.9311 -125.801 -68.3505 14.7284 1.18274 -19.2717 3.19317 -15.501 76.3236 -26.4637 39.1594 49.274 -38.8243 -45.6801 -71.8972 2.11239 -2.23356 27.2131 -4.15662 -28.9498 -116.531 -0.2128 -20.6897 71.4379 25.6605 10.1119 49.1362 -6.17076 -9.81912 -140.682 7.74456 -0.018048 86.5786 -7.84849 -7.4076 46.4139 0.537277 -1.17031 -40.4674 -74.688 9.74542 6.08945 57.6741 -2.71773 
-1.0938340 0.4693530 -0.1320381 -6.04257 -4.46626 126.145 -178.435 1.89208 1.0087 8.00158 0.935389 7.61489 5.26393 2.24107 -0.826349 -122.024 71.1907 132.69 -111.795 -37.7235 -139.556 121.444 -24.0684 -126.884 -68.7231 14.9557 1.3098 -19.7769 3.27499 -15.6669 75.6749 -27.4251 39.3882 49.551 -37.2984 -45.1324 -78.0552 11.8714 -2.16541 42.7928 -9.55322 -28.4568 -114.497 -0.872862 -21.1031 71.2835 26.3866 10.0691 49.4526 -6.18117 -9.8028 -141.749 8.30363 0.64804 80.9828 -8.06467 -8.59383 49.3084 0.948771 -0.937448 -43.2668 -74.8038 5.81433 5.83125 58.8625 -2.2734 
-1.0878844 0.4679560 -0.1230752 -5.75284 -4.76446 125.841 -177.837 2.24973 0.996862 7.36446 1.2439 7.73533 5.72387 2.07415 -0.560772 -122.373 71.6698 131.997 -111.545 -36.8853 -140.533 120.541 -25.2536 -126.995 -68.0754 16.8337 0.452598 -21.2191 3.23386 -15.2244 75.1779 -28.7033 40.9764 50.2489 -34.5957 -44.7651 -83.6755 20.5463 -3.71409 53.0293 -12.0322 -24.9231 -112.422 -1.43734 -21.1862 71.2343 26.5993 9.77026 49.7655 -6.09496 -9.68707 -142.308 8.16229 0.713996 74.855 -8.33237 -9.52332 52.8234 1.44673 -0.706055 -46.2744 -75.1958 1.72175 5.62252 60.4065 -1.994 
-1.0823566 0.4663290 -0.1139716 -5.28380 -4.94619 125.521 -177.427 2.66023 0.753356 6.88022 1.57909 8.35923 6.38665 1.50247 -0.526674 -121.973 72.2778 130.208 -111.058 -35.7365 -141.561 120.233 -26.0839 -127.522 -67.5975 15.5507 0.816732 -21.5882 3.71043 -16.3962 74.492 -30.3059 42.5581 51.4832 -30.5899 -43.4601 -87.6368 23.7069 -6.81179 54.2895 -12.9286 -26.7529 -110.199 -2.24102 -21.6016 70.6738 27.2216 10.0139 50.3014 -6.11817 -9.68041 -142.34 7.15469 0.208387 68.4277 -9.44246 -9.83896 56.6542 2.09662 -0.409303 -49.6032 -75.4978 -2.73125 5.54822 62.4394 -1.99531 
-1.0772442 0.4646180 -0.1051249 -4.59275 -5.09434 125.283 -177.266 2.9129 1.31086 6.96034 1.84098 7.85634 6.82399 1.01398 -0.196376 -121.739 72.9821 128.549 -110.832 -34.8824 -142.728 119.919 -26.4801 -128.085 -66.4446 15.3343 0.761889 -22.5361 4.08929 -17.051 73.8654 -31.6982 43.7012 53.9584 -24.0014 -43.5094 -89.3716 29.3219 -10.736 53.6942 -11.4996 -23.2678 -107.694 -3.10199 -21.7515 69.704 27.9656 10.3435 50.4266 -6.18913 -9.75104 -141.855 5.74386 -0.415683 62.2766 -11.1124 -9.48525 60.6092 2.72606 -0.178388 -53.5967 -75.604 -8.03312 5.54049 64.9999 -2.19924 
